<svg xmlns="http://www.w3.org/2000/svg" xmlns:xlink="http://www.w3.org/1999/xlink" viewBox="0 0 66 64" fill="#fff" fill-rule="evenodd" stroke="#000" stroke-linecap="round" stroke-linejoin="round"><use xlink:href="#A" x="1" y="1"/><symbol id="A" overflow="visible"><path d="M4.062 14.47c-5.66 8.14-4.96 18.728-.632 27.4.1.208.21.412.316.616l.2.39c.04.076.084.15.126.224.074.14.15.268.226.404l.414.708.236.388.48.75.204.316.694 1 .136.184a32.66 32.66 0 0 0 .632.84l.24.304.584.72.224.268c.266.314.54.626.814.93.028.03.04.04.048.052l.828.872.266.268.66.648.27.26a34.11 34.11 0 0 0 .906.824l.992.84.34.272.686.536.366.28.77.552.36.254c.246.17.496.332.748.494l.324.216a41.46 41.46 0 0 0 1.17.716l.324.2.88.492c.16.086.324.168.486.25l.628.326.146.07.26.124.996.46.21.094c.385.167.772.328 1.162.482l.28.112 1.096.406.14.048a43.45 43.45 0 0 0 1.22.4l.296.088c.4.126.832.28 1.26.356 27.388 4.994 35.34-16.46 35.34-16.46-6.68 8.704-18.54 11-29.8 8.444-.426-.096-.84-.228-1.254-.352l-.312-.094c-.405-.124-.808-.256-1.208-.394l-.166-.06-1.064-.394-.3-.12a30.23 30.23 0 0 1-1.15-.48l-.23-.1-.97-.452-.28-.134c-.252-.12-.5-.254-.75-.4l-.5-.26c-.304-.16-.6-.332-.9-.504l-.304-.17c-.394-.232-.784-.471-1.17-.716-.106-.068-.21-.14-.316-.21l-.832-.554c-.092-.06-.2-.128-.268-.188l-.788-.57-.35-.264-.71-.556-.316-.254-.884-.746c-.032-.028-.066-.055-.1-.08l-.93-.846-.26-.252-.664-.66-.26-.26a16.05 16.05 0 0 1-.8-.868c-.014-.014-.028-.028-.04-.044-.283-.311-.561-.627-.832-.948l-.2-.26-.6-.74-.2-.274-.692-.92c-6.276-8.504-8.52-20.26-3.532-29.9m13.16-1.25c-4.096 5.894-3.874 13.8-.68 20.016.535 1.048 1.141 2.058 1.812 3.024.614.88 1.294 1.926 2.108 2.632.296.326.604.64.92.954l.24.24c.306.298.619.589.938.872.014.01.024.024.04.034.364.32.732.6 1.106.916l.248.194c.375.289.758.569 1.148.838l.034.024c.172.12.348.23.524.346.084.054.164.112.248.164a23.2 23.2 0 0 0 .85.52l.12.07.752.4c.088.05.2.092.268.14l.526.272c.026.014.054.024.08.036.361.18.726.35 1.096.51l.24.1a28.34 28.34 0 0 0 .9.364l.384.14.826.286.374.12c.394.12.8.28 1.194.346 21.146 3.504 26.028-12.8 26.028-12.8-4.4 6.34-12.92 9.36-22.016 7-.402-.106-.801-.221-1.198-.346-.12-.036-.24-.076-.36-.116l-.84-.288-.4-.14c-.302-.117-.602-.238-.9-.364l-.244-.1a25.14 25.14 0 0 1-1.104-.512l-.554-.28-.32-.164c-.235-.128-.469-.259-.7-.394l-.168-.094c-.286-.168-.569-.341-.848-.52-.086-.054-.17-.114-.256-.17l-.55-.364c-.387-.268-.768-.547-1.14-.836l-.26-.2c-4-3.144-7.136-7.44-8.636-12.308-1.572-5.05-1.234-10.72 1.49-15.32m11.464-.366c-2.412 3.57-2.652 7.966-.976 11.89 1.766 4.166 5.386 7.432 9.612 9l.524.2.232.072.754.2c11.676 2.256 14.84-5.992 15.686-7.206-2.774 3.994-7.436 4.952-13.156 3.564-.452-.11-.948-.274-1.384-.428a16.92 16.92 0 0 1-1.644-.682c-1.017-.489-1.982-1.078-2.882-1.758C38.074 13.46 34.894 6.032 38.234 0" stroke="none" fill="#0868ac" fill-rule="nonzero"/></symbol></svg>