<svg role="img" viewBox="0 0 45 45" xmlns="http://www.w3.org/2000/svg" id="Langchain--Streamline-Simple-Icons" height="45" width="45"><desc>Langchain Streamline Icon: https://streamlinehq.com</desc><title>LangChain</title><path d="M11.43525 11.0953125C5.1298125 11.0953125 0 16.211625 0 22.5s5.130000000000001 11.4046875 11.43525 11.4046875h22.1295C39.8701875 33.9046875 45 28.788375 45 22.5s-5.130000000000001 -11.4046875 -11.43525 -11.4046875ZM11.207625 14.720625c0.924375 0.02325 1.9125 0.46799999999999997 2.386875 1.16775 0.6886875 0.861 0.895875 2.00025 1.677 2.79975 1.05075 1.147125 2.248125 2.1571875 3.2176875 3.37875 0.91725 1.1163750000000001 1.572375 2.4256875 2.14425 3.7453125000000003 0.23324999999999999 0.43781250000000005 0.23568750000000002 0.975375 0.58125 1.3494375 0.17025 0.22574999999999998 1.002375 0.8405625 0.8218125000000001 1.0584375 0.1040625 0.22574999999999998 0.881625 0.53625 0.6118125 0.7550625 -0.3645 0.075 -0.7741875 0.08925000000000001 -1.053 -0.201375 -0.1029375 0.23625000000000002 -0.343125 0.11175 -0.5285624999999999 0.081a7.5 7.5 0 0 0 -0.046875 0.138c-0.6164999999999999 0.0410625 -1.078875 -0.586125 -1.3725 -1.059375 -0.5833125 -0.315 -1.2453750000000001 -0.506625 -1.84125 -0.83625 -0.034125 0.5428124999999999 0.08474999999999999 1.2159375 -0.43312500000000004 1.5661875 -0.02625 1.0434375 1.58175 0.12300000000000001 1.729125 0.9007499999999999 -0.114375 0.0125625 -0.24112499999999998 -0.0178125 -0.332625 0.0699375 -0.4198125 0.40725 -0.9009375 -0.30843750000000003 -1.3846875 -0.013125 -0.6495 0.32625 -0.7140000000000001 0.5926875 -1.518 0.6599999999999999 -0.0444375 -0.0673125 -0.0268125 -0.111 0.0110625 -0.15206250000000002 0.2263125 -0.2623125 0.24281250000000001 -0.571125 0.62925 -0.6830625 -0.397875 -0.062625 -0.7310625000000001 0.1561875 -1.066125 0.3294375 -0.4355625 0.178125 -0.432 -0.4014375 -1.102125 0.030750000000000003 -0.07425000000000001 -0.060375 -0.039 -0.1153125 0.003375 -0.162 0.17025 -0.2075625 0.394125 -0.238125 0.646875 -0.2265 -1.243125 -0.691125 -1.8283125 0.8450624999999999 -2.4024375 0.081 -0.1725 0.0455625 -0.2371875 0.20025 -0.3459375 0.30975 -0.09375 -0.10275000000000001 -0.0230625 -0.22725 -0.018562500000000003 -0.3481875 -0.112125 -0.0525 -0.25425 -0.076875 -0.2210625 -0.256125 -0.2195625 -0.0740625 -0.37275 0.0553125 -0.53625 0.17850000000000002 -0.1475625 -0.114 0.09974999999999999 -0.27975 0.14550000000000002 -0.3984375 0.131625 -0.228 0.43125 -0.046875 0.5833125 -0.211125 0.432375 -0.24525 1.0350000000000001 0.152625 1.5290625 0.0853125 0.38062500000000005 0.047812499999999994 0.8520000000000001 -0.3421875 0.6611250000000001 -0.7312500000000001 -0.4070625 -0.5188125 -0.335625 -1.1973749999999999 -0.3448125 -1.8178125 -0.05025 -0.3616875 -0.920625 -0.8216249999999999 -1.17225 -1.211625 -0.31106249999999996 -0.3511875 -0.553125 -0.7588125 -0.7955625000000001 -1.159125 -0.8748750000000001 -1.689 -0.599625 -3.8594999999999997 -1.7019374999999999 -5.4275625 -0.49875 0.27487500000000004 -1.1484375 0.145125 -1.578375 -0.223125 -0.232125 0.2109375 -0.24225000000000002 0.487125 -0.260625 0.7801875 -0.556875 -0.5553750000000001 -0.48618749999999994 -1.6048125 -0.041249999999999995 -2.2228125 0.1816875 -0.244125 0.3988125 -0.44493750000000004 0.6412500000000001 -0.62175 0.05475 -0.0399375 0.0733125 -0.0785625 0.0721875 -0.1400625 0.22012500000000002 -0.9875624999999999 1.08075 -1.3858125 2.0051249999999996 -1.3625625000000001m23.263312499999998 0.8625c1.0453125 0 2.026125 0.4048125 2.76375 1.140375s1.14375 1.7146875 1.14375 2.7569999999999997c0 1.0425 -0.4063125 2.02125 -1.14375 2.755875v0.001125l-1.6912500000000001 1.6865625a3.9000000000000004 3.9000000000000004 0 0 1 -1.6119375 0.9686249999999998l-0.030750000000000003 0.008812500000000001 -0.010875 0.030750000000000003a3.8437499999999996 3.8437499999999996 0 0 1 -0.8887499999999999 1.37025l-1.6908750000000001 1.6865625c-0.7376250000000001 0.73575 -1.719375 1.1405625 -2.7646875 1.1405625s-2.026125 -0.40499999999999997 -2.76375 -1.1405625c-1.5243749999999998 -1.5200624999999999 -1.5243749999999998 -3.992625 0 -5.512875l1.6910625000000001 -1.6865625a3.855 3.855 0 0 1 1.60875 -0.9643124999999999l0.031875 -0.0099375 0.010875 -0.029625000000000002a3.8812499999999996 3.8812499999999996 0 0 1 0.891 -1.3756875l1.6908750000000001 -1.6865625c0.7376250000000001 -0.73575 1.7195625 -1.1405625 2.7646875 -1.1405625zm0 1.6809375a2.2125 2.2125 0 0 0 -1.57275 0.6491250000000001l-1.6908750000000001 1.6865625a2.214375 2.214375 0 0 0 -0.6425625 1.73475l0.0099375 0.10725c0.060562500000000005 0.49724999999999997 0.279375 0.9457499999999999 0.632625 1.2969374999999999 0.24375000000000002 0.243 0.5124375 0.39637500000000003 0.8383125 0.503625a1.6875 1.6875 0 0 1 0.02625 0.296625 1.6575 1.6575 0 0 1 -0.48918750000000005 1.182l-0.103875 0.103875c-0.5649375 -0.19275 -1.0359375 -0.474375 -1.4613749999999999 -0.8985000000000001a3.8625000000000003 3.8625000000000003 0 0 1 -1.0801874999999999 -2.0564999999999998l-0.018562500000000003 -0.108375 -0.0864375 0.069a2.0625 2.0625 0 0 0 -0.16425 0.148875l-1.692 1.6865625c-0.8668125 0.864375 -0.8668125 2.2725 0 3.136875 0.4333125 0.4321875 1.003125 0.6487499999999999 1.5738750000000001 0.6489375000000001 0.5705625000000001 0 1.1394375 -0.21675 1.57275 -0.6491250000000001l1.6910625000000001 -1.6865625c0.8668125 -0.864375 0.8668125 -2.2711875 0 -3.136875a2.1937499999999996 2.1937499999999996 0 0 0 -0.8188124999999999 -0.5154375 1.875 1.875 0 0 1 -0.02625 -0.3020625c0 -0.4858125 0.1918125 -0.946875 0.5439375000000001 -1.2980625000000001 0.5660625 0.19275 1.0687499999999999 0.5051249999999999 1.492875 0.928125 0.5638125 0.5623125 0.9363750000000001 1.273125 1.07925 2.0564999999999998l0.0196875 0.108375 0.0853125 -0.0699375a2.0625 2.0625 0 0 0 0.1663125 -0.148875l1.6912500000000001 -1.68675c0.866625 -0.864375 0.86775 -2.27325 0 -3.1378125a2.2125 2.2125 0 0 0 -1.5740625000000001 -0.6491250000000001Zm-18.699375 9.6688125 -0.001125 0.001125c-0.1486875 0.577125 -0.1965 1.559625 -0.94875 1.588125 -0.061875 0.333 0.23025 0.4584375 0.49781250000000005 0.351375 0.26437499999999997 -0.1209375 0.3901875 0.09525 0.47943749999999996 0.31068749999999995 0.40818750000000004 0.0594375 1.011375 -0.1359375 1.03425 -0.618375 -0.609375 -0.3500625 -0.7974375 -1.0158749999999999 -1.061625 -1.6329375" fill="#000000" stroke-width="1"></path></svg>