<?xml version="1.0" encoding="UTF-8"?>
<svg id="uuid-d2b72ed6-ddfb-4bec-b50e-833657f04e4a" data-name="Layer 1" xmlns="http://www.w3.org/2000/svg" viewBox="0 0 806.98 516.22">
  <path d="M0,2.17V301.06H137.53V139.7h106.55c11.12,.73,32.62,3.65,55.15,17.36,18.3,11.14,29.63,24.75,35.74,33.36,4.9-19.34,13.37-44.61,28.6-71.83,13.13-23.47,27.55-41.72,39.83-55.15-14.06-12.17-34.6-27.25-61.96-39.49C303.9,7.15,269.9,3.04,248.17,2.17,82.75,2.74,.02,2.74,0,2.17Z" style="fill: #006fff;"/>
  <path d="M515.06,326.6c26.98,35.99,70.1,55.1,112.68,49.36,48.53-6.54,75.43-42.53,80.34-49.36l98.89,98.89c-12.98,15.92-34.6,38.39-66.89,57.02-45.98,26.52-89.61,31.43-112.68,32.34h-32.68c-17.43-.8-40.89-3.78-67.06-12.94-38.74-13.55-65.75-34.44-81.36-48.68,12.92-15.12,27.85-35.23,41.53-60.6,13.25-24.57,21.71-47.38,27.23-66.04Z" style="fill: #006fff;"/>
  <path d="M213.45,376.98v138.21c15.09,1.52,118.56,10.17,201.87-68.77,85.19-80.71,80.25-187.56,79.32-202.21,14.3-60.91,64.13-103.15,117.79-104.17,54.57-1.04,90.07,40.98,94.98,46.98,32.45-32.45,64.91-64.91,97.36-97.36-13.41-15.6-69.86-77.63-164.09-88.17-127.9-14.3-213.05,78.86-221.28,88.17-10.44,11.38-22.36,26.57-33.02,45.96-18.31,33.3-24.96,64.52-27.57,85.45,2.12,14.41,5.5,51.25-14.64,89.53-10.73,20.4-24.45,34.19-34.38,42.55-8.16,5.25-18.49,10.83-30.98,15.32-26.56,9.56-50.32,9.73-65.36,8.51Z" style="fill: #006fff;"/>
</svg>